# xmcd
#
# Track frame offsets:
#	150
#	11093
#	21532
#	32722
#	46369
#	56779
#	67785
#	76470
#	86556
#	97674
#	108878
#	118323
#	129758
#	141593
#	153099
#	164575
#	175769
#	186455
#	196658
#	207072
#	216619
#	229423
#
# Disc length: 3199 seconds
# Revision: 2
# Processed by: cddbd v1.5.2PL0 Copyright (c) Steve Scherf et al.
# Submitted via: dBpowerAMP V12.0
#
DISCID=350c7d16
DTITLE=Buck Owens - Tall Dark Stranger, CD08 - CD08
DYEAR=2012
DGENRE=Country
TTITLE0=Meanwhile Back at the Ranch
TTITLE1=On the Cover of the Music City News
TTITLE2=Great Expectations
TTITLE3=Amazing Love
TTITLE4=I Love
TTITLE5=You're Gonna Love Yourself in the Morning
TTITLE6=Kiss an Angel Good Mornin'
TTITLE7=Pass Me By (If You're Only Passing Through)
TTITLE8=41st Street Lonely Hearts' Club
TTITLE9=Weekend Daddy
TTITLE10=I Finally Gave Her Enough Rope
TTITLE11=Run Him to the Roundhouse Nellie
TTITLE12=Drifting Away
TTITLE13=He Ain't Been Out Bowlin' with the Boys
TTITLE14=It's Been a Long, Long Time
TTITLE15=A Different Kind of Sad
TTITLE16=You Don't Find Work in Pool Rooms (And Love Don't Make the Bars)
TTITLE17=How's Everything
TTITLE18=California Oakie
TTITLE19=The Battle of New Orleans
TTITLE20=Country Singer's Prayer
TTITLE21=Mexican Jumping Bean
EXTD=
EXTT0=
EXTT1=
EXTT2=
EXTT3=
EXTT4=
EXTT5=
EXTT6=
EXTT7=
EXTT8=
EXTT9=
EXTT10=
EXTT11=
EXTT12=
EXTT13=
EXTT14=
EXTT15=
EXTT16=
EXTT17=
EXTT18=
EXTT19=
EXTT20=
EXTT21=
PLAYORDER=
